<svg width="24" height="24" viewBox="0 0 24 24" fill="none" xmlns="http://www.w3.org/2000/svg">
<g clip-path="url(#clip0_6_604)">
<path d="M0 24V0H24V24H0ZM5.86971 15.3394C5.86971 15.7234 5.84914 15.8126 5.65029 16.0457L3.97714 18.1029V18.3771H8.75657V18.1029L7.06286 16.0457C6.864 15.8126 6.82971 15.7029 6.82971 15.3394V9.20229L11.0331 18.3634H11.52L15.1269 9.20229V16.4983C15.1269 16.704 15.1269 16.7383 14.9966 16.8617L13.728 18.096V18.3703H20.0366V18.096L18.7817 16.8617C18.6583 16.7383 18.6446 16.6971 18.6446 16.4983V7.50171C18.6446 7.296 18.6583 7.26171 18.7817 7.13829L20.0297 5.904V5.62971H15.5931L12.4251 13.5497L8.85943 5.63657H4.19657V5.91086L5.67086 7.71429C5.83543 7.92 5.86971 7.968 5.86971 8.24229V15.3394Z" fill="#999FAA"/>
</g>
<defs>
<clipPath id="clip0_6_604">
<rect width="24" height="24" rx="4" fill="white"/>
</clipPath>
</defs>
</svg>
