<svg width="24" height="24" viewBox="0 0 24 24" fill="none" xmlns="http://www.w3.org/2000/svg">
<g clip-path="url(#clip0_6_642)">
<g clip-path="url(#clip1_6_642)">
<path d="M5.64298 18.5298C2.04062 15.0255 1.96607 9.24133 5.47032 5.63898C8.97457 2.04055 14.7587 1.96599 18.3572 5.47024C21.9556 8.97842 22.0341 14.7587 18.5298 18.3571C16.7444 20.1897 14.3742 21.1079 12.0001 21.1079C9.70446 21.1079 7.41276 20.2525 5.64298 18.5298ZM3.39837 3.62198C-1.21641 8.37018 -1.1183 15.983 3.62597 20.6017C8.37025 25.2204 15.9831 25.1184 20.6057 20.3741C25.2205 15.6337 25.1224 8.017 20.3781 3.3983C18.0472 1.13015 15.0217 0 12.0001 0C8.86862 0 5.74501 1.20863 3.39837 3.62198Z" fill="#999FAA"/>
<path d="M14.5858 12.361L15.7748 13.55L9.42559 19.8993C10.2693 20.174 11.1758 20.3231 12.1136 20.3113C12.2392 20.3113 12.3648 20.3035 12.4903 20.2956L17.5015 15.2806L18.6826 16.4617L18.6708 12.361H14.5858ZM13.3458 6.57685L14.5348 7.76586L5.34056 16.9601C5.57994 17.2819 5.84285 17.588 6.12539 17.8705C6.4197 18.1687 6.73756 18.4395 7.07503 18.6867L16.2654 9.49641L17.4465 10.6776L17.4308 6.57685H13.3458ZM7.53415 5.31328L8.72317 6.50229L3.70812 11.5173C3.69635 11.7135 3.6885 11.9137 3.69243 12.1099C3.7042 12.9732 3.84939 13.8012 4.10446 14.5821L10.4537 8.22891L11.6349 9.41008L11.6192 5.30936L7.53415 5.31328Z" fill="#999FAA"/>
</g>
</g>
<defs>
<clipPath id="clip0_6_642">
<rect width="24" height="24" rx="4" fill="white"/>
</clipPath>
<clipPath id="clip1_6_642">
<rect width="24" height="24" fill="white"/>
</clipPath>
</defs>
</svg>
