<svg width="24" height="24" viewBox="0 0 24 24" fill="none" xmlns="http://www.w3.org/2000/svg">
<g clip-path="url(#clip0_6_615)">
<g clip-path="url(#clip1_6_615)">
<path d="M17.8368 0.0207437C18.4673 0.0767519 19.4502 0.394131 20.192 1.04756C20.9708 1.813 21.1563 2.98917 20.8781 4.03466C20.637 4.9868 20.3589 5.4722 19.3945 6.12563C18.4302 6.77906 17.2619 6.74172 17.2619 6.74172V10.8303L19.2462 12.4359L17.2619 14.0414V19.6236C17.2619 19.6236 19.2462 18.4661 20.4701 15.9271C20.4701 15.9271 20.5258 15.7777 20.637 15.5163C20.7483 16.2071 20.6741 17.6073 19.9138 19.3809C19.3389 20.7251 18.2818 22.0319 16.9466 22.76C14.5914 24.0669 12.8296 24.1976 10.9566 23.8055C8.74973 23.3388 6.72833 22.1066 5.356 19.9223C4.39166 18.3914 3.96513 16.5992 4.00222 14.6762C4.0764 10.905 6.87669 7.65652 10.085 6.42434C10.4744 6.27499 10.6413 6.18164 11.1977 6.12563C10.938 6.29365 10.6413 6.51769 10.289 6.76039C9.25044 7.45116 8.36028 8.81402 7.98938 9.85951L14.239 7.0591V15.8524L9.19481 18.3914C9.7697 19.1942 11.5129 20.4077 13.0151 20.5757C15.5372 20.8558 17.0393 19.7356 17.0393 19.7356V14.0414L15.0736 12.4359L17.0393 10.8303V6.74172C15.9637 6.61103 14.6656 6.25632 13.9052 6.06962C12.7925 5.78958 9.04645 4.7441 8.45301 4.65075C7.85957 4.5574 7.13632 4.59474 6.70978 4.9868C6.2647 5.37886 6.00507 6.08829 6.19052 6.72305C6.30179 7.07777 6.54288 7.28313 6.72833 7.4885C6.72833 7.4885 6.50579 7.46983 6.11634 7.22712C5.41164 6.79773 4.87383 5.95761 4.8182 4.93079C4.74402 3.5866 5.28182 2.37309 6.39452 1.55163C7.35886 0.935543 8.43446 0.543486 9.69552 0.711511C11.5315 0.972882 14.0165 2.03704 16.2233 2.55978C17.0764 2.76514 17.744 2.83982 18.3375 2.4851C18.6156 2.27974 19.1164 1.757 18.7084 1.06623C18.2447 0.263446 17.336 0.282115 16.5757 0.13276C17.2062 -0.0165949 17.3546 -0.016595 17.8368 0.0207437ZM10.4002 17.514V9.01938L7.85957 10.1582C7.85957 10.1582 7.2105 11.6144 7.32177 13.7427C7.41449 15.3856 8.32319 17.3646 9.0279 18.2047L10.4002 17.514Z" fill="#999FAA"/>
</g>
</g>
<defs>
<clipPath id="clip0_6_615">
<rect width="24" height="24" rx="4" fill="white"/>
</clipPath>
<clipPath id="clip1_6_615">
<rect width="24" height="24" fill="white"/>
</clipPath>
</defs>
</svg>
