<svg width="19" height="13" viewBox="0 0 19 13" fill="none" xmlns="http://www.w3.org/2000/svg">
<path d="M18.3636 2.05421C18.1476 1.25095 17.5143 0.61775 16.7111 0.401458C15.2439 0 9.37477 0 9.37477 0C9.37477 0 3.5059 0 2.03865 0.386237C1.25095 0.602301 0.602188 1.25106 0.386124 2.05421C0 3.52134 0 6.56397 0 6.56397C0 6.56397 0 9.62193 0.386124 11.0737C0.602417 11.8769 1.2355 12.5101 2.03876 12.7264C3.52135 13.1279 9.375 13.1279 9.375 13.1279C9.375 13.1279 15.2439 13.1279 16.7111 12.7417C17.5144 12.5255 18.1476 11.8923 18.3639 11.0892C18.7499 9.62193 18.7499 6.57942 18.7499 6.57942C18.7499 6.57942 18.7653 3.52134 18.3636 2.05421ZM7.50618 9.37486V3.75308L12.3866 6.56397L7.50618 9.37486Z" fill="#999FAA"/>
</svg>
